<svg xmlns="http://www.w3.org/2000/svg" xmlns:xlink="http://www.w3.org/1999/xlink" width="500" zoomAndPan="magnify" viewBox="0 0 375 374.999991" height="500" preserveAspectRatio="xMidYMid meet" version="1.0"><defs><g/><clipPath id="5c5d48692f"><path d="M 92.609375 82.273438 L 282.359375 82.273438 L 282.359375 213.523438 L 92.609375 213.523438 Z M 92.609375 82.273438 " clip-rule="nonzero"/></clipPath></defs><g clip-path="url(#5c5d48692f)"><path fill="#000000" d="M 225.257812 188.734375 L 228.539062 188.734375 L 228.539062 166.132812 L 225.257812 166.132812 Z M 150.058594 194.410156 L 152.804688 194.410156 L 152.804688 166.132812 L 150.058594 166.132812 Z M 197.144531 199.515625 L 201.027344 199.515625 L 201.027344 157.058594 L 197.144531 157.058594 Z M 124.53125 204.050781 L 128.128906 204.050781 L 128.128906 182.746094 L 124.53125 179.148438 Z M 282.273438 213.21875 L 267.398438 213.21875 L 267.398438 178.046875 L 260.589844 178.046875 L 260.589844 153.652344 L 240.257812 153.652344 L 240.257812 166.132812 L 230.898438 166.132812 L 230.898438 191.09375 L 222.898438 191.09375 L 222.898438 163.773438 L 228.539062 163.773438 L 228.539062 124.40625 L 211.324219 141.617188 L 211.324219 157.058594 L 203.382812 157.058594 L 203.382812 201.875 L 194.785156 201.875 L 194.785156 154.699219 L 201.027344 154.699219 L 201.027344 138.90625 L 185.140625 138.90625 L 185.140625 95.929688 C 185.140625 89.699219 180.070312 84.628906 173.839844 84.628906 C 167.609375 84.628906 162.539062 89.699219 162.539062 95.929688 L 162.539062 166.132812 L 155.164062 166.132812 L 155.164062 196.769531 L 147.699219 196.769531 L 147.699219 163.773438 L 152.804688 163.773438 L 152.804688 112.242188 L 133.609375 112.242188 L 133.609375 138.90625 L 124.53125 138.90625 L 124.53125 175.8125 L 130.488281 181.769531 L 130.488281 206.410156 L 122.171875 206.410156 L 122.171875 176.789062 L 106.945312 161.5625 L 106.945312 213.21875 L 92.71875 213.21875 L 92.71875 210.859375 L 104.585938 210.859375 L 104.585938 155.867188 L 122.171875 173.453125 L 122.171875 136.546875 L 131.246094 136.546875 L 131.246094 109.882812 L 155.164062 109.882812 L 155.164062 163.773438 L 160.179688 163.773438 L 160.179688 95.929688 C 160.179688 88.398438 166.308594 82.269531 173.839844 82.269531 C 181.371094 82.269531 187.5 88.398438 187.5 95.929688 L 187.5 136.546875 L 203.382812 136.546875 L 203.382812 154.699219 L 208.96875 154.699219 L 208.96875 140.640625 L 230.898438 118.707031 L 230.898438 163.773438 L 237.898438 163.773438 L 237.898438 151.296875 L 262.949219 151.296875 L 262.949219 175.6875 L 269.757812 175.6875 L 269.757812 210.859375 L 282.273438 210.859375 L 282.273438 213.21875 " fill-opacity="1" fill-rule="nonzero"/></g><g fill="#000000" fill-opacity="1"><g transform="translate(50.16173, 250.497756)"><g><path d="M 1.375 -21.921875 L 4.796875 -21.921875 C 4.828125 -21.304688 4.890625 -20.8125 4.984375 -20.4375 C 5.078125 -20.0625 5.207031 -19.582031 5.375 -19 L 10.46875 -0.9375 L 15.625 -19.125 C 15.769531 -19.65625 15.894531 -20.109375 16 -20.484375 C 16.113281 -20.859375 16.1875 -21.335938 16.21875 -21.921875 L 17.046875 -21.921875 C 16.753906 -21.316406 16.550781 -20.832031 16.4375 -20.46875 C 16.332031 -20.101562 16.207031 -19.664062 16.0625 -19.15625 L 11.046875 -1.484375 C 10.972656 -1.191406 10.941406 -0.945312 10.953125 -0.75 C 10.960938 -0.5625 11.007812 -0.3125 11.09375 0 L 7.859375 0 L 2.5 -19 C 2.332031 -19.632812 2.171875 -20.144531 2.015625 -20.53125 C 1.859375 -20.925781 1.644531 -21.390625 1.375 -21.921875 Z M 1.375 -21.921875 "/></g></g></g><g fill="#000000" fill-opacity="1"><g transform="translate(73.342234, 250.497756)"><g><path d="M 17.65625 -21.921875 L 16.4375 -20.390625 C 15.269531 -20.867188 14.179688 -21.171875 13.171875 -21.296875 C 12.171875 -21.421875 11.367188 -21.484375 10.765625 -21.484375 L 10.4375 -21.484375 L 10.4375 -5.40625 C 10.4375 -4.738281 10.445312 -4.140625 10.46875 -3.609375 C 10.488281 -3.085938 10.507812 -2.546875 10.53125 -1.984375 C 10.5625 -1.429688 10.601562 -0.769531 10.65625 0 L 7.53125 0 C 7.59375 -0.769531 7.632812 -1.429688 7.65625 -1.984375 C 7.6875 -2.546875 7.707031 -3.085938 7.71875 -3.609375 C 7.738281 -4.140625 7.75 -4.738281 7.75 -5.40625 L 7.75 -21.484375 L 7.421875 -21.484375 C 6.816406 -21.484375 6.015625 -21.421875 5.015625 -21.296875 C 4.023438 -21.171875 2.9375 -20.867188 1.75 -20.390625 L 0.546875 -21.921875 Z M 17.65625 -21.921875 "/></g></g></g><g fill="#000000" fill-opacity="1"><g transform="translate(96.303549, 250.497756)"><g><path d="M 15.890625 -2.9375 C 16.078125 -2.3125 16.25 -1.796875 16.40625 -1.390625 C 16.5625 -0.992188 16.773438 -0.53125 17.046875 0 L 13.625 0 C 13.601562 -0.625 13.539062 -1.125 13.4375 -1.5 C 13.34375 -1.875 13.210938 -2.351562 13.046875 -2.9375 L 11.625 -7.96875 L 4.28125 -7.96875 L 2.796875 -2.796875 C 2.648438 -2.285156 2.519531 -1.835938 2.40625 -1.453125 C 2.300781 -1.066406 2.222656 -0.582031 2.171875 0 L 1.375 0 C 1.6875 -0.601562 1.890625 -1.085938 1.984375 -1.453125 C 2.085938 -1.816406 2.210938 -2.253906 2.359375 -2.765625 L 7.375 -20.4375 C 7.445312 -20.738281 7.476562 -20.988281 7.46875 -21.1875 C 7.457031 -21.382812 7.40625 -21.628906 7.3125 -21.921875 L 10.546875 -21.921875 Z M 4.390625 -8.40625 L 11.515625 -8.40625 L 7.953125 -21 Z M 4.390625 -8.40625 "/></g></g></g><g fill="#000000" fill-opacity="1"><g transform="translate(119.484054, 250.497756)"><g/></g></g><g fill="#000000" fill-opacity="1"><g transform="translate(132.088764, 250.497756)"><g><path d="M 15.890625 -2.9375 C 16.078125 -2.3125 16.25 -1.796875 16.40625 -1.390625 C 16.5625 -0.992188 16.773438 -0.53125 17.046875 0 L 13.625 0 C 13.601562 -0.625 13.539062 -1.125 13.4375 -1.5 C 13.34375 -1.875 13.210938 -2.351562 13.046875 -2.9375 L 11.625 -7.96875 L 4.28125 -7.96875 L 2.796875 -2.796875 C 2.648438 -2.285156 2.519531 -1.835938 2.40625 -1.453125 C 2.300781 -1.066406 2.222656 -0.582031 2.171875 0 L 1.375 0 C 1.6875 -0.601562 1.890625 -1.085938 1.984375 -1.453125 C 2.085938 -1.816406 2.210938 -2.253906 2.359375 -2.765625 L 7.375 -20.4375 C 7.445312 -20.738281 7.476562 -20.988281 7.46875 -21.1875 C 7.457031 -21.382812 7.40625 -21.628906 7.3125 -21.921875 L 10.546875 -21.921875 Z M 4.390625 -8.40625 L 11.515625 -8.40625 L 7.953125 -21 Z M 4.390625 -8.40625 "/></g></g></g><g fill="#000000" fill-opacity="1"><g transform="translate(155.269274, 250.497756)"><g><path d="M 14.609375 -5.203125 C 15.078125 -3.984375 15.546875 -3.023438 16.015625 -2.328125 C 16.484375 -1.628906 17.019531 -1.132812 17.625 -0.84375 C 18.226562 -0.550781 18.945312 -0.40625 19.78125 -0.40625 L 19.78125 0 C 18.289062 0 17.035156 -0.148438 16.015625 -0.453125 C 15.003906 -0.753906 14.171875 -1.269531 13.515625 -2 C 12.867188 -2.726562 12.316406 -3.734375 11.859375 -5.015625 C 11.347656 -6.460938 10.804688 -7.550781 10.234375 -8.28125 C 9.660156 -9.007812 9.015625 -9.5 8.296875 -9.75 C 7.585938 -10.007812 6.757812 -10.140625 5.8125 -10.140625 L 4.828125 -10.140625 L 4.828125 -5.40625 C 4.828125 -4.738281 4.828125 -4.140625 4.828125 -3.609375 C 4.835938 -3.085938 4.859375 -2.546875 4.890625 -1.984375 C 4.929688 -1.429688 4.984375 -0.769531 5.046875 0 L 1.921875 0 C 1.972656 -0.769531 2.015625 -1.429688 2.046875 -1.984375 C 2.085938 -2.546875 2.113281 -3.085938 2.125 -3.609375 C 2.132812 -4.140625 2.140625 -4.738281 2.140625 -5.40625 L 2.140625 -16.53125 C 2.140625 -17.207031 2.132812 -17.804688 2.125 -18.328125 C 2.113281 -18.847656 2.085938 -19.382812 2.046875 -19.9375 C 2.015625 -20.5 1.972656 -21.160156 1.921875 -21.921875 L 6.984375 -21.921875 C 8.210938 -21.921875 9.375 -21.832031 10.46875 -21.65625 C 11.5625 -21.488281 12.53125 -21.1875 13.375 -20.75 C 14.226562 -20.320312 14.894531 -19.722656 15.375 -18.953125 C 15.863281 -18.191406 16.109375 -17.21875 16.109375 -16.03125 C 16.109375 -14.644531 15.789062 -13.546875 15.15625 -12.734375 C 14.519531 -11.921875 13.65625 -11.320312 12.5625 -10.9375 C 11.476562 -10.550781 10.257812 -10.300781 8.90625 -10.1875 C 10.09375 -9.96875 11.175781 -9.492188 12.15625 -8.765625 C 13.132812 -8.035156 13.953125 -6.847656 14.609375 -5.203125 Z M 4.828125 -10.578125 L 6.96875 -10.578125 C 7.769531 -10.578125 8.546875 -10.660156 9.296875 -10.828125 C 10.054688 -10.992188 10.738281 -11.273438 11.34375 -11.671875 C 11.945312 -12.078125 12.425781 -12.628906 12.78125 -13.328125 C 13.132812 -14.035156 13.3125 -14.9375 13.3125 -16.03125 C 13.3125 -17.125 13.132812 -18.019531 12.78125 -18.71875 C 12.425781 -19.425781 11.945312 -19.984375 11.34375 -20.390625 C 10.738281 -20.796875 10.054688 -21.078125 9.296875 -21.234375 C 8.546875 -21.398438 7.769531 -21.484375 6.96875 -21.484375 L 4.828125 -21.484375 Z M 4.828125 -10.578125 "/></g></g></g><g fill="#000000" fill-opacity="1"><g transform="translate(180.833429, 250.497756)"><g><path d="M 22.109375 -9.125 L 22.5 -9.125 C 22.082031 -7.1875 21.445312 -5.488281 20.59375 -4.03125 C 19.75 -2.582031 18.65625 -1.457031 17.3125 -0.65625 C 15.96875 0.144531 14.351562 0.546875 12.46875 0.546875 C 10.769531 0.546875 9.25 0.25 7.90625 -0.34375 C 6.5625 -0.9375 5.421875 -1.765625 4.484375 -2.828125 C 3.554688 -3.898438 2.847656 -5.15625 2.359375 -6.59375 C 1.878906 -8.03125 1.640625 -9.578125 1.640625 -11.234375 C 1.640625 -12.898438 1.914062 -14.421875 2.46875 -15.796875 C 3.03125 -17.179688 3.800781 -18.367188 4.78125 -19.359375 C 5.757812 -20.359375 6.90625 -21.125 8.21875 -21.65625 C 9.53125 -22.195312 10.9375 -22.46875 12.4375 -22.46875 C 14.5625 -22.46875 16.351562 -21.941406 17.8125 -20.890625 C 19.269531 -19.847656 20.46875 -18.382812 21.40625 -16.5 L 18.65625 -15.765625 C 18.382812 -16.929688 17.984375 -17.984375 17.453125 -18.921875 C 16.921875 -19.859375 16.242188 -20.609375 15.421875 -21.171875 C 14.609375 -21.742188 13.613281 -22.03125 12.4375 -22.03125 C 11.238281 -22.03125 10.15625 -21.753906 9.1875 -21.203125 C 8.226562 -20.660156 7.40625 -19.898438 6.71875 -18.921875 C 6.039062 -17.941406 5.519531 -16.804688 5.15625 -15.515625 C 4.789062 -14.234375 4.609375 -12.863281 4.609375 -11.40625 C 4.609375 -9.90625 4.773438 -8.488281 5.109375 -7.15625 C 5.453125 -5.820312 5.972656 -4.640625 6.671875 -3.609375 C 7.378906 -2.578125 8.269531 -1.765625 9.34375 -1.171875 C 10.425781 -0.578125 11.695312 -0.28125 13.15625 -0.28125 C 14.757812 -0.28125 16.15625 -0.644531 17.34375 -1.375 C 18.53125 -2.101562 19.519531 -3.128906 20.3125 -4.453125 C 21.113281 -5.773438 21.710938 -7.332031 22.109375 -9.125 Z M 22.109375 -9.125 "/></g></g></g><g fill="#000000" fill-opacity="1"><g transform="translate(209.192229, 250.497756)"><g><path d="M 17.546875 -16.53125 L 17.546875 -5.40625 C 17.546875 -4.738281 17.546875 -4.140625 17.546875 -3.609375 C 17.554688 -3.085938 17.578125 -2.546875 17.609375 -1.984375 C 17.648438 -1.429688 17.703125 -0.769531 17.765625 0 L 14.640625 0 C 14.691406 -0.769531 14.734375 -1.429688 14.765625 -1.984375 C 14.804688 -2.546875 14.832031 -3.085938 14.84375 -3.609375 C 14.851562 -4.140625 14.859375 -4.738281 14.859375 -5.40625 L 14.859375 -10.75 L 4.828125 -10.75 L 4.828125 -5.40625 C 4.828125 -4.738281 4.828125 -4.140625 4.828125 -3.609375 C 4.835938 -3.085938 4.859375 -2.546875 4.890625 -1.984375 C 4.929688 -1.429688 4.984375 -0.769531 5.046875 0 L 1.921875 0 C 1.972656 -0.769531 2.015625 -1.429688 2.046875 -1.984375 C 2.085938 -2.546875 2.113281 -3.085938 2.125 -3.609375 C 2.132812 -4.140625 2.140625 -4.738281 2.140625 -5.40625 L 2.140625 -16.53125 C 2.140625 -17.207031 2.132812 -17.804688 2.125 -18.328125 C 2.113281 -18.847656 2.085938 -19.382812 2.046875 -19.9375 C 2.015625 -20.5 1.972656 -21.160156 1.921875 -21.921875 L 5.046875 -21.921875 C 4.984375 -21.160156 4.929688 -20.5 4.890625 -19.9375 C 4.859375 -19.382812 4.835938 -18.847656 4.828125 -18.328125 C 4.828125 -17.804688 4.828125 -17.207031 4.828125 -16.53125 L 4.828125 -11.1875 L 14.859375 -11.1875 L 14.859375 -16.53125 C 14.859375 -17.207031 14.851562 -17.804688 14.84375 -18.328125 C 14.832031 -18.847656 14.804688 -19.382812 14.765625 -19.9375 C 14.734375 -20.5 14.691406 -21.160156 14.640625 -21.921875 L 17.765625 -21.921875 C 17.703125 -21.160156 17.648438 -20.5 17.609375 -19.9375 C 17.578125 -19.382812 17.554688 -18.847656 17.546875 -18.328125 C 17.546875 -17.804688 17.546875 -17.207031 17.546875 -16.53125 Z M 17.546875 -16.53125 "/></g></g></g><g fill="#000000" fill-opacity="1"><g transform="translate(233.633055, 250.497756)"><g><path d="M 1.921875 -21.921875 L 5.046875 -21.921875 C 4.984375 -21.160156 4.929688 -20.5 4.890625 -19.9375 C 4.859375 -19.382812 4.835938 -18.847656 4.828125 -18.328125 C 4.828125 -17.804688 4.828125 -17.207031 4.828125 -16.53125 L 4.828125 -5.40625 C 4.828125 -4.738281 4.828125 -4.140625 4.828125 -3.609375 C 4.835938 -3.085938 4.859375 -2.546875 4.890625 -1.984375 C 4.929688 -1.429688 4.984375 -0.769531 5.046875 0 L 1.921875 0 C 1.972656 -0.769531 2.015625 -1.429688 2.046875 -1.984375 C 2.085938 -2.546875 2.113281 -3.085938 2.125 -3.609375 C 2.132812 -4.140625 2.140625 -4.738281 2.140625 -5.40625 L 2.140625 -16.53125 C 2.140625 -17.207031 2.132812 -17.804688 2.125 -18.328125 C 2.113281 -18.847656 2.085938 -19.382812 2.046875 -19.9375 C 2.015625 -20.5 1.972656 -21.160156 1.921875 -21.921875 Z M 1.921875 -21.921875 "/></g></g></g><g fill="#000000" fill-opacity="1"><g transform="translate(245.361028, 250.497756)"><g><path d="M 17.65625 -21.921875 L 16.4375 -20.390625 C 15.269531 -20.867188 14.179688 -21.171875 13.171875 -21.296875 C 12.171875 -21.421875 11.367188 -21.484375 10.765625 -21.484375 L 10.4375 -21.484375 L 10.4375 -5.40625 C 10.4375 -4.738281 10.445312 -4.140625 10.46875 -3.609375 C 10.488281 -3.085938 10.507812 -2.546875 10.53125 -1.984375 C 10.5625 -1.429688 10.601562 -0.769531 10.65625 0 L 7.53125 0 C 7.59375 -0.769531 7.632812 -1.429688 7.65625 -1.984375 C 7.6875 -2.546875 7.707031 -3.085938 7.71875 -3.609375 C 7.738281 -4.140625 7.75 -4.738281 7.75 -5.40625 L 7.75 -21.484375 L 7.421875 -21.484375 C 6.816406 -21.484375 6.015625 -21.421875 5.015625 -21.296875 C 4.023438 -21.171875 2.9375 -20.867188 1.75 -20.390625 L 0.546875 -21.921875 Z M 17.65625 -21.921875 "/></g></g></g><g fill="#000000" fill-opacity="1"><g transform="translate(268.322338, 250.497756)"><g><path d="M 1.921875 -21.921875 L 14.859375 -21.921875 L 13.625 -20.390625 C 12.851562 -20.703125 12.0625 -20.9375 11.25 -21.09375 C 10.4375 -21.25 9.691406 -21.351562 9.015625 -21.40625 C 8.335938 -21.457031 7.789062 -21.484375 7.375 -21.484375 L 4.875 -21.484375 L 4.875 -11.84375 L 6.625 -11.84375 C 7.363281 -11.84375 8.140625 -11.851562 8.953125 -11.875 C 9.773438 -11.90625 10.828125 -11.984375 12.109375 -12.109375 L 12.109375 -11.125 C 10.828125 -11.269531 9.773438 -11.351562 8.953125 -11.375 C 8.140625 -11.394531 7.363281 -11.40625 6.625 -11.40625 L 4.875 -11.40625 L 4.875 -0.4375 L 7.953125 -0.4375 C 8.859375 -0.4375 9.695312 -0.457031 10.46875 -0.5 C 11.238281 -0.550781 12.03125 -0.65625 12.84375 -0.8125 C 13.65625 -0.96875 14.570312 -1.191406 15.59375 -1.484375 L 14.796875 0 L 1.921875 0 C 1.992188 -0.769531 2.046875 -1.429688 2.078125 -1.984375 C 2.117188 -2.546875 2.144531 -3.085938 2.15625 -3.609375 C 2.164062 -4.140625 2.171875 -4.738281 2.171875 -5.40625 L 2.171875 -16.53125 C 2.171875 -17.207031 2.164062 -17.804688 2.15625 -18.328125 C 2.144531 -18.847656 2.117188 -19.382812 2.078125 -19.9375 C 2.046875 -20.5 1.992188 -21.160156 1.921875 -21.921875 Z M 1.921875 -21.921875 "/></g></g></g><g fill="#000000" fill-opacity="1"><g transform="translate(289.502764, 250.497756)"><g><path d="M 22.109375 -9.125 L 22.5 -9.125 C 22.082031 -7.1875 21.445312 -5.488281 20.59375 -4.03125 C 19.75 -2.582031 18.65625 -1.457031 17.3125 -0.65625 C 15.96875 0.144531 14.351562 0.546875 12.46875 0.546875 C 10.769531 0.546875 9.25 0.25 7.90625 -0.34375 C 6.5625 -0.9375 5.421875 -1.765625 4.484375 -2.828125 C 3.554688 -3.898438 2.847656 -5.15625 2.359375 -6.59375 C 1.878906 -8.03125 1.640625 -9.578125 1.640625 -11.234375 C 1.640625 -12.898438 1.914062 -14.421875 2.46875 -15.796875 C 3.03125 -17.179688 3.800781 -18.367188 4.78125 -19.359375 C 5.757812 -20.359375 6.90625 -21.125 8.21875 -21.65625 C 9.53125 -22.195312 10.9375 -22.46875 12.4375 -22.46875 C 14.5625 -22.46875 16.351562 -21.941406 17.8125 -20.890625 C 19.269531 -19.847656 20.46875 -18.382812 21.40625 -16.5 L 18.65625 -15.765625 C 18.382812 -16.929688 17.984375 -17.984375 17.453125 -18.921875 C 16.921875 -19.859375 16.242188 -20.609375 15.421875 -21.171875 C 14.609375 -21.742188 13.613281 -22.03125 12.4375 -22.03125 C 11.238281 -22.03125 10.15625 -21.753906 9.1875 -21.203125 C 8.226562 -20.660156 7.40625 -19.898438 6.71875 -18.921875 C 6.039062 -17.941406 5.519531 -16.804688 5.15625 -15.515625 C 4.789062 -14.234375 4.609375 -12.863281 4.609375 -11.40625 C 4.609375 -9.90625 4.773438 -8.488281 5.109375 -7.15625 C 5.453125 -5.820312 5.972656 -4.640625 6.671875 -3.609375 C 7.378906 -2.578125 8.269531 -1.765625 9.34375 -1.171875 C 10.425781 -0.578125 11.695312 -0.28125 13.15625 -0.28125 C 14.757812 -0.28125 16.15625 -0.644531 17.34375 -1.375 C 18.53125 -2.101562 19.519531 -3.128906 20.3125 -4.453125 C 21.113281 -5.773438 21.710938 -7.332031 22.109375 -9.125 Z M 22.109375 -9.125 "/></g></g></g><g fill="#000000" fill-opacity="1"><g transform="translate(317.861565, 250.497756)"><g><path d="M 1.921875 -21.921875 L 5.046875 -21.921875 C 4.984375 -21.160156 4.929688 -20.5 4.890625 -19.9375 C 4.859375 -19.382812 4.835938 -18.847656 4.828125 -18.328125 C 4.828125 -17.804688 4.828125 -17.207031 4.828125 -16.53125 L 4.828125 -5.40625 C 4.828125 -4.738281 4.828125 -4.140625 4.828125 -3.609375 C 4.835938 -3.085938 4.859375 -2.546875 4.890625 -1.984375 C 4.929688 -1.429688 4.984375 -0.769531 5.046875 0 L 1.921875 0 C 1.972656 -0.769531 2.015625 -1.429688 2.046875 -1.984375 C 2.085938 -2.546875 2.113281 -3.085938 2.125 -3.609375 C 2.132812 -4.140625 2.140625 -4.738281 2.140625 -5.40625 L 2.140625 -16.53125 C 2.140625 -17.207031 2.132812 -17.804688 2.125 -18.328125 C 2.113281 -18.847656 2.085938 -19.382812 2.046875 -19.9375 C 2.015625 -20.5 1.972656 -21.160156 1.921875 -21.921875 Z M 1.921875 -21.921875 "/></g></g></g></svg>